<svg xmlns="http://www.w3.org/2000/svg" width="504" height="224" viewBox="0 0 504 224" fill="none"><path d="M460.282 1.28904C461.636 1.28904 462.835 1.8217 463.878 2.88701C464.921 3.95233 465.431 5.1508 465.431 6.52683V21.3081C465.431 22.7507 464.921 24.0379 463.878 25.1254C462.835 26.2351 461.636 26.79 460.282 26.79H441.351V84.4057C441.351 86.0259 440.885 87.3797 439.975 88.4894C439.065 89.5992 437.911 90.154 436.557 90.154H420.622C419.268 90.154 418.136 89.6214 417.204 88.556C416.294 87.4907 415.828 86.1591 415.828 84.5389L416.671 26.79H397.518C396.008 26.79 394.743 26.2351 393.745 25.1254C392.746 24.0157 392.258 22.7507 392.258 21.3081V6.50464C392.258 5.06203 392.768 3.81916 393.745 2.79823C394.743 1.77731 396.008 1.26685 397.518 1.26685H460.282V1.28904ZM339.813 23.705V34.0253H373.592C374.88 34.0253 376.012 34.5579 377.01 35.6232C378.009 36.6885 378.497 38.0202 378.497 39.6404V50.7374C378.497 52.18 377.987 53.4894 377.01 54.6213C376.012 55.7754 374.88 56.3525 373.592 56.3525H339.813V67.6936H375.257C376.611 67.6936 377.787 68.2263 378.786 69.2916C379.785 70.3569 380.273 71.7329 380.273 73.4419V84.4057C380.273 85.9371 379.785 87.2688 378.786 88.4229C377.787 89.577 376.611 90.154 375.257 90.154H318.729C317.375 90.154 316.199 89.577 315.2 88.4229C314.201 87.2688 313.713 85.9371 313.713 84.4057V84.0285V73.4419V18.1121V7.0151C313.713 5.39494 314.201 4.0633 315.2 2.99798C316.199 1.93267 317.375 1.40001 318.729 1.40001H375.257C376.611 1.40001 377.787 1.93267 378.786 2.99798C379.785 4.0633 380.273 5.39494 380.273 7.0151V18.1121C380.273 19.5547 379.762 20.8642 378.719 21.9961C377.676 23.1502 376.522 23.7272 375.257 23.7272H339.813V23.705Z" fill="#F59E29"></path><path d="M462.79 124.798V135.119H496.57C497.857 135.119 498.989 135.651 499.987 136.717C500.986 137.782 501.474 139.114 501.474 140.734V151.831C501.474 153.273 500.986 154.561 499.987 155.715C498.989 156.869 497.857 157.446 496.57 157.446H462.79V168.787H498.234C499.588 168.787 500.764 169.32 501.763 170.385C502.762 171.45 503.25 172.826 503.25 174.535V185.499C503.25 187.03 502.762 188.362 501.763 189.516C500.764 190.67 499.588 191.247 498.234 191.247H441.706C440.352 191.247 439.176 190.67 438.177 189.516C437.178 188.362 436.69 187.03 436.69 185.499V185.1V174.513V119.205V108.108C436.69 106.488 437.2 105.157 438.177 104.091C439.176 103.026 440.352 102.493 441.706 102.493H498.234C499.588 102.493 500.764 103.026 501.763 104.091C502.762 105.157 503.25 106.488 503.25 108.108V119.205C503.25 120.648 502.739 121.958 501.696 123.089C500.653 124.244 499.499 124.821 498.234 124.821H462.79V124.798ZM422.308 108.486V119.96C422.308 121.491 421.82 122.845 420.821 124.044C419.823 125.242 418.691 125.819 417.403 125.819H382.426V136.517H415.717C417.004 136.517 418.114 137.027 419.068 138.048C420.022 139.069 420.511 140.423 420.511 142.132V153.606C420.511 155.138 420.022 156.491 419.068 157.69C418.114 158.888 416.982 159.465 415.717 159.465H382.426V185.344C382.426 186.875 381.915 188.229 380.872 189.427C379.829 190.626 378.675 191.203 377.41 191.203H361.719C360.365 191.203 359.188 190.604 358.19 189.427C357.191 188.229 356.703 186.875 356.703 185.344V119.96V108.486V108.353C356.703 106.732 357.191 105.423 358.145 104.402C359.1 103.381 360.298 102.871 361.741 102.871H417.426C418.713 102.871 419.845 103.403 420.843 104.469C421.82 105.534 422.308 106.866 422.308 108.486ZM311.893 185.61V107.864C311.893 106.244 312.381 104.868 313.335 103.714C314.29 102.56 315.577 101.983 317.175 101.983H333.576C335.019 101.983 336.24 102.56 337.238 103.714C338.237 104.868 338.725 106.244 338.725 107.864V185.632C338.725 187.408 338.237 188.85 337.238 189.893C336.24 190.959 335.019 191.491 333.576 191.491H317.175C315.577 191.491 314.29 190.959 313.335 189.893C312.381 188.828 311.893 187.408 311.893 185.61ZM237.898 191.092C236.544 191.092 235.368 190.559 234.369 189.494C233.37 188.429 232.882 187.097 232.882 185.477V107.465C232.882 105.845 233.37 104.491 234.369 103.381C235.368 102.271 236.544 101.717 237.898 101.717H254.055C255.409 101.717 256.585 102.271 257.584 103.381C258.583 104.491 259.071 105.845 259.071 107.465V164.57H292.007C293.516 164.57 294.826 165.081 295.891 166.101C296.978 167.122 297.511 168.387 297.511 169.919V185.987C297.511 187.43 296.978 188.673 295.891 189.694C294.803 190.715 293.516 191.225 292.007 191.225H240.983L237.898 191.092Z" fill="#00B0AF"></path><path d="M242.981 211.023C242.892 211.023 242.803 211.001 242.714 210.956C242.625 210.912 242.537 210.846 242.448 210.757H242.426C242.293 210.624 242.115 210.468 241.871 210.291C241.649 210.113 241.405 209.958 241.138 209.825C240.872 209.669 240.584 209.558 240.251 209.447C239.94 209.336 239.607 209.292 239.296 209.292C238.875 209.292 238.52 209.336 238.209 209.425C237.898 209.514 237.632 209.647 237.41 209.802C237.188 209.958 237.033 210.158 236.922 210.357C236.811 210.579 236.744 210.801 236.744 211.045C236.744 211.312 236.833 211.534 236.988 211.733C237.166 211.933 237.388 212.111 237.654 212.266C237.942 212.421 238.275 212.554 238.63 212.688C239.008 212.821 239.385 212.954 239.785 213.065C240.251 213.198 240.717 213.353 241.161 213.509C241.605 213.664 242.048 213.864 242.47 214.064C242.892 214.263 243.269 214.485 243.646 214.729C244.001 214.974 244.312 215.262 244.578 215.573C244.845 215.884 245.045 216.261 245.2 216.638C245.355 217.038 245.422 217.482 245.422 217.97C245.422 218.769 245.267 219.501 244.934 220.145C244.601 220.788 244.157 221.343 243.58 221.809C243.003 222.275 242.337 222.631 241.56 222.875C240.783 223.119 239.962 223.252 239.074 223.252C238.497 223.252 237.942 223.185 237.388 223.052C236.833 222.919 236.278 222.742 235.767 222.497C235.257 222.253 234.769 221.965 234.303 221.61C233.837 221.255 233.437 220.877 233.06 220.456L233.038 220.411C232.882 220.234 232.793 220.056 232.793 219.901C232.793 219.812 232.816 219.745 232.86 219.657C232.904 219.59 232.971 219.501 233.06 219.412L233.437 219.057C233.548 218.969 233.659 218.858 233.792 218.747C233.925 218.636 234.036 218.525 234.169 218.436C234.303 218.347 234.414 218.258 234.525 218.192C234.636 218.125 234.724 218.103 234.791 218.103C234.902 218.103 234.991 218.147 235.079 218.192C235.168 218.258 235.235 218.325 235.301 218.369L235.346 218.414C235.612 218.658 235.901 218.88 236.211 219.102C236.522 219.324 236.855 219.523 237.21 219.701C237.543 219.878 237.876 220.012 238.231 220.1C238.586 220.189 238.875 220.256 239.185 220.256C239.585 220.256 239.962 220.211 240.317 220.1C240.672 219.989 240.983 219.856 241.227 219.657C241.494 219.479 241.693 219.235 241.826 218.969C241.982 218.702 242.048 218.414 242.048 218.081C242.048 217.748 241.96 217.482 241.76 217.237C241.56 217.015 241.316 216.794 241.005 216.638C240.695 216.461 240.339 216.327 239.962 216.194C239.585 216.061 239.185 215.95 238.786 215.839C237.876 215.573 237.099 215.262 236.433 214.951C235.767 214.641 235.19 214.286 234.747 213.886C234.303 213.487 233.948 213.043 233.726 212.554C233.504 212.066 233.393 211.511 233.393 210.89C233.393 210.202 233.526 209.58 233.814 209.026C234.103 208.471 234.48 207.982 234.991 207.583C235.501 207.183 236.1 206.873 236.833 206.651C237.543 206.429 238.342 206.318 239.23 206.318C239.896 206.318 240.584 206.429 241.272 206.629C241.96 206.828 242.603 207.139 243.202 207.494C243.38 207.605 243.558 207.738 243.735 207.872C243.913 208.005 244.09 208.16 244.246 208.293C244.401 208.426 244.534 208.582 244.623 208.715C244.712 208.848 244.778 208.959 244.778 209.07C244.778 209.159 244.756 209.248 244.712 209.336C244.667 209.425 244.623 209.514 244.556 209.58L244.223 209.936C244.112 210.047 244.001 210.18 243.868 210.291C243.757 210.424 243.624 210.535 243.513 210.624C243.402 210.712 243.291 210.801 243.202 210.868C243.114 210.979 243.025 211.023 242.981 211.023Z" fill="#00B0AF"></path><path d="M257.518 222.653C257.562 222.497 257.606 222.364 257.651 222.253C257.695 222.142 257.74 222.009 257.784 221.92L263.754 207.072C263.776 206.984 263.843 206.895 263.932 206.806C264.02 206.717 264.176 206.651 264.331 206.651H266.107C266.284 206.651 266.417 206.695 266.484 206.784C266.573 206.873 266.617 206.939 266.662 207.006L267.039 207.871L272.876 222.475C272.876 222.497 272.876 222.542 272.898 222.586C272.898 222.653 272.92 222.697 272.92 222.719C272.92 222.941 272.765 223.052 272.432 223.052H270.257C270.102 223.052 269.968 223.03 269.88 222.963C269.791 222.897 269.724 222.786 269.658 222.653L269.458 222.142C269.325 221.787 269.17 221.432 269.036 221.077C268.903 220.722 268.77 220.367 268.637 220.011H261.801C261.601 220.522 261.424 221.01 261.246 221.476C261.069 221.942 260.913 222.32 260.78 222.675C260.669 222.941 260.492 223.074 260.203 223.074H257.984C257.851 223.074 257.74 223.052 257.651 222.985C257.562 222.941 257.518 222.852 257.518 222.763C257.495 222.719 257.495 222.675 257.518 222.653ZM261.535 203.566C261.801 203.144 262.156 202.811 262.578 202.567C263 202.323 263.466 202.212 263.954 202.212C264.176 202.234 264.398 202.278 264.62 202.345C264.842 202.412 265.108 202.523 265.374 202.7L266.04 203.1C266.218 203.233 266.417 203.299 266.617 203.299C266.795 203.299 266.95 203.255 267.083 203.166C267.216 203.077 267.327 202.966 267.416 202.855C267.505 202.744 267.594 202.633 267.682 202.545C267.749 202.456 267.838 202.412 267.882 202.412C267.949 202.412 268.06 202.456 268.193 202.567C268.326 202.656 268.459 202.789 268.592 202.9C268.726 203.011 268.837 203.144 268.948 203.277C269.059 203.41 269.103 203.477 269.103 203.521C269.103 203.543 269.081 203.588 269.059 203.632C269.036 203.677 268.992 203.721 268.97 203.765C268.948 203.81 268.903 203.876 268.859 203.921C268.814 203.965 268.792 204.01 268.748 204.054C268.459 204.431 268.126 204.72 267.727 204.897C267.327 205.075 266.906 205.186 266.462 205.186C266.218 205.186 265.951 205.141 265.707 205.053C265.441 204.964 265.197 204.831 264.975 204.675L264.398 204.298C264.309 204.231 264.22 204.187 264.131 204.165C264.043 204.143 263.954 204.12 263.821 204.12C263.621 204.12 263.488 204.165 263.377 204.231C263.266 204.298 263.177 204.387 263.066 204.498C262.977 204.609 262.889 204.698 262.8 204.808C262.711 204.919 262.622 204.986 262.511 204.986C262.467 204.986 262.356 204.942 262.223 204.853C262.09 204.764 261.956 204.653 261.823 204.542C261.69 204.431 261.557 204.298 261.446 204.187C261.335 204.076 261.291 203.987 261.291 203.943C261.291 203.921 261.291 203.876 261.313 203.832C261.379 203.788 261.446 203.699 261.535 203.566ZM265.219 210.845C264.819 211.866 264.42 212.909 264.02 214.019C263.621 215.107 263.221 216.15 262.822 217.171H267.527L265.219 210.845Z" fill="#00B0AF"></path><path d="M284.994 214.862C284.994 214.085 285.082 213.33 285.282 212.62C285.482 211.888 285.77 211.222 286.126 210.6C286.503 209.979 286.925 209.402 287.435 208.891C287.945 208.381 288.522 207.937 289.144 207.56C289.765 207.182 290.453 206.916 291.164 206.716C291.874 206.517 292.628 206.406 293.405 206.406C294.182 206.406 294.937 206.517 295.647 206.716C296.357 206.916 297.045 207.205 297.666 207.56C298.288 207.915 298.865 208.359 299.375 208.891C299.886 209.402 300.33 209.979 300.685 210.6C301.062 211.222 301.328 211.91 301.528 212.62C301.728 213.352 301.839 214.085 301.839 214.884C301.839 215.683 301.728 216.415 301.528 217.125C301.328 217.836 301.04 218.524 300.685 219.145C300.33 219.767 299.886 220.344 299.375 220.854C298.865 221.364 298.288 221.808 297.666 222.163C297.045 222.519 296.379 222.807 295.647 223.007C294.937 223.207 294.182 223.295 293.405 223.295C292.628 223.295 291.874 223.207 291.164 223.007C290.453 222.807 289.765 222.519 289.144 222.163C288.522 221.786 287.945 221.364 287.435 220.854C286.925 220.344 286.481 219.767 286.126 219.145C285.77 218.524 285.482 217.858 285.282 217.125C285.105 216.393 284.994 215.638 284.994 214.862ZM288.19 214.839C288.19 215.572 288.323 216.282 288.589 216.926C288.855 217.569 289.233 218.146 289.699 218.612C290.165 219.101 290.72 219.478 291.363 219.744C292.007 220.011 292.695 220.166 293.427 220.166C294.16 220.166 294.848 220.033 295.491 219.744C296.135 219.456 296.69 219.079 297.156 218.612C297.622 218.146 297.999 217.569 298.266 216.926C298.532 216.282 298.665 215.572 298.665 214.839C298.665 214.107 298.532 213.419 298.266 212.753C297.999 212.11 297.622 211.533 297.156 211.066C296.69 210.578 296.135 210.201 295.491 209.912C294.848 209.624 294.16 209.491 293.427 209.491C292.673 209.491 291.985 209.624 291.363 209.912C290.72 210.201 290.165 210.578 289.699 211.066C289.233 211.555 288.855 212.11 288.589 212.753C288.323 213.419 288.19 214.107 288.19 214.839Z" fill="#00B0AF"></path><path d="M341.433 207.826C341.522 207.87 341.589 207.937 341.655 208.004C341.722 208.07 341.744 208.159 341.744 208.27C341.744 208.359 341.722 208.425 341.677 208.514L340.612 210.334C340.479 210.512 340.346 210.6 340.213 210.6C340.168 210.6 340.124 210.6 340.057 210.578C339.991 210.556 339.946 210.534 339.88 210.489C339.414 210.156 338.925 209.89 338.393 209.713C337.86 209.535 337.305 209.424 336.706 209.424C335.951 209.424 335.263 209.557 334.642 209.846C334.02 210.134 333.466 210.512 333.022 211C332.556 211.488 332.201 212.065 331.956 212.709C331.712 213.375 331.579 214.063 331.579 214.817C331.579 215.572 331.712 216.26 331.956 216.903C332.223 217.547 332.578 218.124 333.022 218.612C333.488 219.101 334.02 219.478 334.642 219.766C335.263 220.055 335.951 220.188 336.706 220.188C337.305 220.188 337.882 220.099 338.415 219.922C338.948 219.744 339.458 219.478 339.924 219.145C339.991 219.101 340.035 219.078 340.102 219.056C340.168 219.034 340.213 219.034 340.257 219.012C340.39 219.012 340.501 219.101 340.634 219.256L341.722 221.098C341.766 221.187 341.788 221.276 341.788 221.342C341.788 221.453 341.766 221.52 341.7 221.609C341.633 221.675 341.566 221.742 341.478 221.786C340.79 222.252 340.035 222.607 339.236 222.874C338.437 223.14 337.594 223.251 336.706 223.251C335.929 223.251 335.175 223.162 334.464 222.962C333.754 222.763 333.066 222.474 332.445 222.119C331.823 221.742 331.246 221.32 330.736 220.81C330.225 220.299 329.781 219.722 329.404 219.101C329.027 218.479 328.76 217.813 328.561 217.081C328.361 216.371 328.272 215.616 328.272 214.839C328.272 214.063 328.361 213.308 328.561 212.598C328.76 211.888 329.049 211.2 329.404 210.578C329.759 209.957 330.203 209.38 330.736 208.847C331.246 208.337 331.823 207.893 332.445 207.515C333.066 207.16 333.732 206.872 334.464 206.672C335.175 206.472 335.929 206.361 336.706 206.361C337.594 206.361 338.415 206.494 339.214 206.739C340.013 206.983 340.745 207.36 341.433 207.826Z" fill="#00B0AF"></path><path d="M354.017 222.653C354.062 222.497 354.106 222.364 354.151 222.253C354.195 222.142 354.239 222.009 354.284 221.92L360.254 207.072C360.276 206.984 360.343 206.895 360.431 206.806C360.52 206.717 360.676 206.651 360.831 206.651H362.606C362.784 206.651 362.917 206.695 362.984 206.784C363.073 206.873 363.117 206.939 363.161 207.006L363.539 207.871L369.376 222.475C369.376 222.497 369.376 222.542 369.398 222.586C369.398 222.653 369.42 222.697 369.42 222.719C369.42 222.941 369.265 223.052 368.932 223.052H366.757C366.601 223.052 366.468 223.03 366.379 222.963C366.291 222.897 366.224 222.786 366.157 222.653L365.958 222.142C365.825 221.787 365.669 221.432 365.536 221.077C365.403 220.722 365.27 220.367 365.137 220.011H358.301C358.101 220.522 357.924 221.01 357.746 221.476C357.568 221.942 357.413 222.32 357.28 222.675C357.169 222.941 356.991 223.074 356.703 223.074H354.483C354.35 223.074 354.239 223.052 354.151 222.985C354.062 222.941 354.017 222.852 354.017 222.764C354.017 222.719 354.017 222.675 354.017 222.653ZM361.719 210.845C361.319 211.866 360.92 212.909 360.52 214.019C360.121 215.107 359.721 216.15 359.322 217.171H364.027L361.719 210.845Z" fill="#00B0AF"></path><path d="M382.159 207.161C382.159 206.805 382.315 206.628 382.648 206.628H393.323C393.523 206.628 393.656 206.672 393.723 206.783C393.811 206.894 393.833 207.027 393.833 207.183V209.136C393.833 209.269 393.789 209.38 393.7 209.491C393.612 209.602 393.478 209.646 393.279 209.646H385.422V212.998H391.481C391.636 212.975 391.747 213.02 391.836 213.086C391.925 213.153 391.969 213.286 391.969 213.486V215.483C391.969 215.616 391.925 215.727 391.858 215.838C391.792 215.949 391.658 215.994 391.503 215.994H385.422V220.011H393.567C393.767 220.011 393.922 220.055 393.967 220.144C394.033 220.233 394.055 220.366 394.055 220.544V222.563C394.055 222.874 393.9 223.029 393.567 223.029H382.603C382.47 223.029 382.359 222.985 382.27 222.918C382.182 222.852 382.137 222.719 382.137 222.563V207.161H382.159Z" fill="#00B0AF"></path><path d="M406.084 207.116C406.084 206.961 406.129 206.85 406.218 206.761C406.306 206.672 406.44 206.628 406.595 206.628H418.225C418.358 206.628 418.469 206.672 418.58 206.761C418.691 206.85 418.757 206.961 418.757 207.116V209.047C418.757 209.202 418.713 209.336 418.624 209.424C418.535 209.535 418.402 209.58 418.225 209.58H414.03V222.519C414.03 222.652 413.986 222.763 413.897 222.874C413.808 222.985 413.675 223.029 413.519 223.029H411.344C411.211 223.029 411.1 222.985 410.989 222.896C410.878 222.807 410.834 222.674 410.834 222.519V209.58H406.617C406.462 209.58 406.351 209.535 406.24 209.447C406.151 209.358 406.107 209.225 406.107 209.025V207.116H406.084Z" fill="#00B0AF"></path><path d="M430.631 222.653C430.675 222.497 430.72 222.364 430.764 222.253C430.809 222.142 430.853 222.009 430.897 221.92L436.868 207.072C436.89 206.984 436.956 206.895 437.045 206.806C437.134 206.717 437.289 206.651 437.445 206.651H439.22C439.398 206.651 439.531 206.695 439.598 206.784C439.686 206.873 439.731 206.939 439.775 207.006L440.152 207.871L445.989 222.475C445.989 222.497 445.989 222.542 446.012 222.586C446.012 222.653 446.034 222.697 446.034 222.719C446.034 222.941 445.878 223.052 445.546 223.052H443.37C443.215 223.052 443.082 223.03 442.993 222.963C442.904 222.897 442.838 222.786 442.771 222.653L442.572 222.142C442.438 221.787 442.283 221.432 442.15 221.077C442.017 220.722 441.883 220.367 441.75 220.011H434.915C434.715 220.522 434.537 221.01 434.36 221.476C434.182 221.942 434.027 222.32 433.894 222.675C433.783 222.941 433.605 223.074 433.317 223.074H431.097C430.964 223.074 430.853 223.052 430.764 222.985C430.675 222.941 430.631 222.852 430.631 222.764C430.631 222.719 430.631 222.675 430.631 222.653ZM438.332 210.845C437.933 211.866 437.533 212.909 437.134 214.019C436.734 215.107 436.335 216.15 435.935 217.171H440.641L438.332 210.845Z" fill="#00B0AF"></path><path d="M458.795 207.138C458.795 207.005 458.84 206.872 458.929 206.783C459.017 206.694 459.128 206.628 459.284 206.628H461.836C461.947 206.628 462.036 206.65 462.125 206.694C462.213 206.739 462.302 206.828 462.369 206.916C463.634 208.714 464.877 210.512 466.119 212.287C467.362 214.063 468.605 215.838 469.87 217.658V207.05C469.892 206.916 469.959 206.805 470.048 206.739C470.137 206.672 470.248 206.628 470.358 206.628H472.489C472.644 206.628 472.755 206.672 472.866 206.761C472.977 206.85 473.022 206.961 473.022 207.116V222.608C473.022 222.918 472.844 223.051 472.511 223.051H470.114C469.959 223.051 469.804 222.963 469.67 222.763C468.383 220.876 467.074 219.012 465.787 217.126C464.499 215.239 463.212 213.375 461.925 211.488V222.585C461.925 222.741 461.88 222.874 461.814 222.963C461.725 223.051 461.614 223.074 461.414 223.074H459.284C459.106 223.074 458.995 223.029 458.906 222.94C458.818 222.852 458.795 222.741 458.795 222.585V207.138Z" fill="#00B0AF"></path><path d="M486.36 214.862C486.36 214.085 486.449 213.33 486.649 212.62C486.849 211.888 487.137 211.222 487.492 210.6C487.87 209.979 488.291 209.402 488.802 208.891C489.312 208.381 489.889 207.937 490.511 207.56C491.132 207.182 491.82 206.916 492.53 206.716C493.241 206.517 493.995 206.406 494.772 206.406C495.549 206.406 496.303 206.517 497.014 206.716C497.724 206.916 498.412 207.205 499.033 207.56C499.655 207.915 500.232 208.359 500.742 208.891C501.253 209.402 501.696 209.979 502.052 210.6C502.429 211.222 502.695 211.91 502.895 212.62C503.095 213.352 503.206 214.085 503.206 214.884C503.206 215.683 503.095 216.415 502.895 217.125C502.695 217.836 502.407 218.524 502.052 219.145C501.696 219.767 501.253 220.344 500.742 220.854C500.232 221.364 499.655 221.808 499.033 222.163C498.412 222.519 497.746 222.807 497.014 223.007C496.303 223.207 495.549 223.295 494.772 223.295C493.995 223.295 493.241 223.207 492.53 223.007C491.82 222.807 491.132 222.519 490.511 222.163C489.889 221.786 489.312 221.364 488.802 220.854C488.291 220.344 487.847 219.767 487.492 219.145C487.137 218.524 486.849 217.858 486.649 217.125C486.449 216.393 486.36 215.638 486.36 214.862ZM489.556 214.839C489.556 215.572 489.689 216.282 489.956 216.926C490.222 217.569 490.599 218.146 491.065 218.612C491.532 219.101 492.086 219.478 492.73 219.744C493.374 220.011 494.062 220.166 494.794 220.166C495.526 220.166 496.214 220.033 496.858 219.744C497.502 219.456 498.057 219.079 498.523 218.612C498.989 218.146 499.366 217.569 499.632 216.926C499.899 216.282 500.032 215.572 500.032 214.839C500.032 214.107 499.899 213.419 499.632 212.753C499.366 212.11 498.989 211.533 498.523 211.066C498.057 210.578 497.502 210.201 496.858 209.912C496.214 209.624 495.526 209.491 494.794 209.491C494.039 209.491 493.351 209.624 492.73 209.912C492.086 210.201 491.532 210.578 491.065 211.066C490.599 211.555 490.222 212.11 489.956 212.753C489.689 213.419 489.556 214.107 489.556 214.839Z" fill="#00B0AF"></path><path fill-rule="evenodd" clip-rule="evenodd" d="M272.476 43.1911C266.706 46.387 264.864 46.387 259.16 43.1911C255.009 40.8607 250.526 36.9767 248.684 33.115C246.82 29.231 247.597 25.3692 249.594 23.2164C251.592 21.0414 254.81 20.5531 257.251 20.8417C259.715 21.108 261.401 22.1289 262.733 22.7282C265.197 23.8157 266.817 23.8157 269.302 22.7282C270.634 22.1511 272.343 21.108 274.807 20.8417C277.27 20.5753 280.466 21.0414 282.419 23.2164C284.372 25.3914 285.06 29.2532 283.129 33.115C281.221 36.9767 276.671 40.8607 272.476 43.1911ZM251.414 91.1524C253.811 91.1524 255.831 90.5088 257.451 89.2437C259.093 87.9786 259.914 86.4029 259.914 84.5164V71.0002C269.724 71.0002 277.692 69.4022 283.795 66.2285C289.899 63.0325 294.337 58.971 297.089 53.9996C299.841 49.0281 301.351 43.7459 301.573 38.1308C301.661 37.1987 301.684 35.6673 301.684 33.5367C301.684 32.0053 301.661 30.6958 301.617 29.5861C301.573 28.4764 301.55 27.7662 301.55 27.4111C301.062 18.1562 297.8 11.2316 291.741 6.70406C285.682 2.15428 276.737 -0.0651278 264.908 0.00145433H238.919C237.232 0.00145433 235.812 0.511917 234.613 1.53284C233.415 2.55377 232.815 3.77444 232.815 5.23925V40.6831V85.9368C232.815 87.3794 233.459 88.6223 234.724 89.6432C236.011 90.6641 237.565 91.1746 239.385 91.1746H251.414V91.1524Z" fill="#F59E29"></path><path fill-rule="evenodd" clip-rule="evenodd" d="M126.728 12.9401C123.221 9.87736 119.582 7.23627 115.942 5.19442C112.102 3.0194 108.196 1.46582 104.401 0.66683C100.739 -0.109962 97.1433 -0.220932 93.7698 0.489278C91.4173 0.977547 89.1757 1.86531 87.0894 3.17476C85.2251 4.35104 83.4718 5.86024 81.8738 7.72454C79.6322 7.83551 77.4128 7.79112 75.2156 7.59137C72.863 7.36943 70.5105 6.96994 68.1801 6.3707C66.338 5.90462 64.5403 5.32758 62.8091 4.66176C61.078 3.99594 59.3913 3.19695 57.7267 2.30919C57.2162 2.04286 56.6836 1.84311 56.1287 1.75434C55.0856 1.55459 54.0203 1.70995 53.0438 2.19822C52.1116 2.68649 51.2904 3.48547 50.669 4.59518C50.2917 5.30539 50.0032 6.12657 49.8256 7.1031C48.8713 12.3631 48.5384 17.2902 48.7825 21.8621C49.0266 26.6339 49.87 31.0061 51.246 34.89C52.1338 37.4202 53.2657 39.7505 54.5973 41.859C55.9512 43.9896 57.5048 45.8983 59.2581 47.5629C61.0114 49.2496 62.9645 50.67 65.0951 51.8463C67.2036 53.0004 69.4895 53.8882 71.9087 54.4874C75.2378 55.3086 78.8554 55.5971 82.6728 55.2864C86.357 54.9979 90.2632 54.1545 94.3247 52.7119C94.9683 52.4899 95.4566 52.0239 95.7229 51.4468C95.9892 50.892 96.0558 50.2261 95.8339 49.5825L95.8117 49.5381C95.5897 48.9167 95.1237 48.4506 94.5688 48.1843C94.014 47.918 93.3481 47.8514 92.7045 48.0733C89.0869 49.3606 85.6246 50.1152 82.3843 50.3815C79.0552 50.6478 75.948 50.4259 73.1072 49.7157C71.0875 49.2274 69.2232 48.495 67.4699 47.5407C65.7166 46.5863 64.0964 45.41 62.6538 44.0118C61.189 42.6136 59.8795 41.0156 58.7476 39.2179C57.6157 37.4202 56.6614 35.4227 55.8846 33.2477C55.0634 30.9395 54.4198 28.4316 54.0425 25.7461C53.6874 23.216 53.532 20.5305 53.643 17.7119C53.6874 16.6243 54.0869 14.6935 54.9302 12.8957C55.4407 11.8082 56.1065 10.8095 56.9721 10.0771C57.7489 9.41128 58.7032 9.01179 59.8351 9.05618C60.5675 9.07837 61.3665 9.30031 62.2765 9.722C63.5637 10.3212 64.9398 10.632 66.3158 10.9649L66.9816 11.1202C69.6227 11.786 72.3304 12.2521 75.0381 12.4741C77.7457 12.7182 80.4756 12.7404 83.2055 12.5185C83.5606 12.4963 83.8935 12.4075 84.2042 12.2521C84.5149 12.0968 84.7812 11.8748 85.0254 11.5863C86.3792 9.85516 87.8662 8.47913 89.4642 7.43601C91.1065 6.3707 92.8821 5.6383 94.7464 5.261C97.4762 4.68395 100.428 4.77273 103.491 5.46074C106.753 6.17095 110.127 7.54698 113.523 9.45567C114.632 10.0771 115.72 10.7429 116.807 11.4753C104.556 15.4481 105.888 29.5413 110.304 33.9135C112.28 35.8888 113.744 37.6421 114.788 39.2623C116.008 43.7899 114.077 48.2953 111.902 53.3555C107.086 64.6301 101.16 78.4348 121.401 100.607C123.909 103.359 126.528 104.779 130.523 104.135L125.951 104.846C125.352 104.934 124.841 105.267 124.531 105.711C124.198 106.155 124.043 106.732 124.131 107.331C124.22 107.931 124.553 108.441 124.997 108.774C125.441 109.107 126.018 109.262 126.617 109.174L131.766 108.375L131.722 109.862L127.571 110.394C126.972 110.483 126.462 110.794 126.129 111.215C125.796 111.659 125.618 112.214 125.685 112.813V112.836C125.774 113.435 126.084 113.945 126.506 114.278C126.95 114.611 127.527 114.789 128.126 114.722L131.322 114.3C131.167 115.432 130.945 116.52 130.679 117.607C130.301 119.139 129.791 120.603 129.169 121.979C125.063 130.968 116.008 137.449 106.753 144.085C96.4553 151.453 85.9353 158.977 80.631 170.473C75.4375 181.704 75.3266 196.551 85.4693 218.368H75.5707C74.9049 218.368 74.2835 218.635 73.8396 219.078C73.3957 219.522 73.1072 220.144 73.1072 220.81C73.1072 221.498 73.3735 222.097 73.8174 222.541C74.2391 222.962 74.8383 223.229 75.4819 223.251H215.282C215.926 223.229 216.503 222.962 216.925 222.541C217.368 222.097 217.657 221.475 217.657 220.81C217.657 220.144 217.391 219.522 216.947 219.078C216.503 218.635 215.881 218.346 215.216 218.346H194.109C194.242 218.08 194.353 217.836 194.442 217.569C194.797 216.615 194.975 215.594 194.975 214.551C194.975 213.486 194.775 212.442 194.42 211.466C194.043 210.467 193.488 209.557 192.8 208.78C192.112 208.004 191.313 207.36 190.403 206.872C189.537 206.406 188.561 206.073 187.54 205.895L187.318 205.851C187.229 205.829 187.118 205.829 187.029 205.829H163.637V205.806H150.609H142.752H127.172H126.972V205.829H114.366C113.678 205.829 113.079 206.095 112.635 206.539C112.191 206.983 111.925 207.604 111.925 208.27C111.925 208.936 112.191 209.557 112.635 210.001C113.079 210.445 113.7 210.711 114.366 210.711H186.918C187.34 210.778 187.739 210.933 188.117 211.133C188.516 211.355 188.871 211.643 189.16 211.976C189.471 212.331 189.715 212.731 189.87 213.175C190.025 213.597 190.114 214.063 190.114 214.551C190.114 215.039 190.025 215.505 189.87 215.927C189.715 216.371 189.471 216.77 189.16 217.103C188.871 217.436 188.516 217.725 188.117 217.947C187.762 218.146 187.362 218.279 186.918 218.368H90.8846C80.6532 197.284 80.4756 183.213 85.2029 172.715C89.9968 162.129 99.8954 155.026 109.572 148.102L109.594 148.08C119.382 141.066 128.97 134.208 133.63 124.021C134.429 122.246 135.051 120.404 135.517 118.517C135.894 116.941 136.183 115.299 136.36 113.635L145.504 112.436C146.103 112.369 146.614 112.037 146.947 111.615C147.28 111.171 147.457 110.594 147.391 109.995C147.302 109.395 146.991 108.885 146.569 108.552C146.126 108.219 145.549 108.042 144.949 108.108L136.671 109.196L136.693 107.576L146.747 106C147.346 105.911 147.835 105.578 148.167 105.134C148.5 104.69 148.656 104.113 148.567 103.514C148.478 102.915 148.145 102.427 147.701 102.094C147.257 101.761 146.68 101.605 146.081 101.694L136.56 103.181C136.316 98.9865 135.805 94.7252 135.273 90.4417V90.353C134.784 86.4024 134.318 82.4297 134.052 78.6123L142.086 84.2718C142.53 84.5825 143.041 84.7157 143.551 84.7157C144.062 84.6935 144.572 84.5381 144.994 84.2052C147.058 82.6072 149.299 81.2756 151.63 80.2325C154.004 79.1672 156.468 78.3904 159.02 77.9243C159.886 77.769 160.751 77.6358 161.639 77.547C161.817 94.1703 170.45 100.718 187.562 97.1887C187.584 97.3219 187.606 97.4773 187.606 97.6104L179.639 98.4094C179.039 98.476 178.507 98.7645 178.174 99.2084C177.819 99.6301 177.641 100.207 177.686 100.806V100.851C177.752 101.428 178.041 101.938 178.462 102.271C178.884 102.626 179.461 102.804 180.06 102.759C182.679 102.604 185.498 102.227 188.139 101.96L188.339 103.736L183.767 104.18C183.167 104.246 182.635 104.535 182.28 104.957C181.947 105.356 181.747 105.889 181.791 106.444V106.555C181.858 107.154 182.147 107.687 182.568 108.042C182.99 108.397 183.567 108.596 184.166 108.53L188.76 108.086C189.293 114.167 189.604 120.049 189.648 125.752C189.715 131.767 189.493 137.582 189.005 143.219C188.05 154.316 186.008 164.548 182.901 173.891C179.794 183.235 175.621 191.691 170.361 199.326C169.984 199.881 169.851 200.546 169.962 201.168C170.073 201.789 170.428 202.366 170.983 202.744C171.538 203.121 172.204 203.254 172.803 203.143C173.424 203.032 174.001 202.677 174.379 202.122C179.883 194.132 184.255 185.277 187.517 175.512C190.758 165.768 192.888 155.16 193.887 143.685C194.375 137.959 194.597 131.989 194.553 125.775C194.486 119.938 194.198 113.901 193.621 107.687L202.143 106.865C202.743 106.799 203.275 106.51 203.63 106.089C203.963 105.689 204.163 105.156 204.119 104.602V104.491C204.052 103.891 203.764 103.381 203.342 103.026C202.942 102.693 202.41 102.493 201.855 102.538L193.221 103.359L193.022 101.561L200.656 100.806C201.256 100.74 201.766 100.451 202.121 100.03C202.454 99.6301 202.632 99.0974 202.609 98.5426V98.4316C202.543 97.8324 202.254 97.3219 201.81 96.9668C201.411 96.6339 200.878 96.4563 200.323 96.4785C197.771 96.6339 195.041 97.0112 192.467 97.2553C191.823 92.306 191.024 87.2236 190.092 81.9636C189.093 76.3929 187.917 70.7112 186.585 64.9408L186.563 64.8076C186.408 64.1418 186.008 63.6091 185.476 63.2762C184.987 62.9655 184.388 62.8324 183.789 62.9211H183.767L183.634 62.9433C183.345 63.0099 183.079 63.1209 182.835 63.2762C182.59 63.4316 182.391 63.6313 182.213 63.8533L174.157 73.7296C171.649 73.1082 169.096 72.7309 166.522 72.6421C163.681 72.5312 160.862 72.7309 158.11 73.2635C156.734 73.5299 155.381 73.8628 154.027 74.2623C154.204 69.8013 154.071 65.8951 153.649 62.3885C153.117 56.9953 151.763 51.58 149.81 46.3422C146.747 38.1304 142.131 30.2959 136.693 23.5045C133.586 19.5318 130.235 16.0251 126.728 12.9401Z" fill="#00B0AF"></path><path fill-rule="evenodd" clip-rule="evenodd" d="M57.3272 157.357C72.7743 151.365 66.227 126.13 57.7267 115.632C58.4147 114.855 59.0806 114.079 59.7686 113.302C74.2613 96.8561 88.4433 80.7876 90.5517 60.4134C90.6183 59.7476 90.4185 59.104 90.0191 58.6157C89.6196 58.1274 89.0425 57.7945 88.3767 57.7279C87.7109 57.6614 87.0672 57.8611 86.579 58.2606C86.0907 58.6601 85.7578 59.2371 85.6912 59.903C84.7147 69.291 80.8529 77.8358 75.4819 85.981C70.0666 94.215 63.1199 102.094 56.1066 110.039C43.6779 124.133 30.9829 138.514 25.4788 155.959C20.0634 173.137 21.5948 193.089 37.0419 218.391H2.46354C1.79772 218.391 1.17628 218.657 0.732404 219.101C0.288523 219.567 0 220.188 0 220.854C0 221.542 0.266329 222.141 0.710209 222.585C1.1319 223.007 1.73114 223.273 2.37476 223.296H54.2423C54.8859 223.273 55.4629 223.007 55.8846 222.585C56.3285 222.141 56.617 221.52 56.617 220.854C56.617 220.188 56.3507 219.567 55.8846 219.123C55.4407 218.679 54.8193 218.413 54.1535 218.413H42.7901C35.222 206.583 30.8497 195.975 28.8967 186.32C45.3202 183.923 37.7077 164.97 57.3272 157.357Z" fill="#00B0AF"></path><path fill-rule="evenodd" clip-rule="evenodd" d="M94.3913 19.2882C95.2791 20.4867 95.6564 20.6642 97.1434 20.6198C98.2309 20.5976 99.5182 20.3091 100.273 19.7542C101.027 19.1994 101.249 18.3782 101.027 17.7568C100.828 17.1354 100.206 16.7137 99.6735 16.5361C99.1409 16.3364 98.697 16.3586 98.3641 16.3364C97.7426 16.292 97.4097 16.1366 97.0102 15.6705C96.7883 15.4264 96.522 15.0491 96.0559 14.7606C95.5676 14.4499 94.8574 14.2279 94.2582 14.4499C93.6367 14.6718 93.1263 15.3376 93.1707 16.2698C93.1707 17.2241 93.7477 18.4226 94.3913 19.2882Z" fill="#00B0AF"></path><path fill-rule="evenodd" clip-rule="evenodd" d="M164.502 101.739C163.947 101.872 163.592 102.138 163.304 102.294C162.771 102.604 162.394 102.649 161.795 102.471C161.462 102.383 161.062 102.205 160.485 102.227C159.908 102.249 159.198 102.427 158.798 102.96C158.399 103.47 158.332 104.313 158.887 105.09C159.42 105.867 160.552 106.555 161.573 106.932C162.971 107.443 163.393 107.398 164.613 106.555C165.501 105.934 166.433 104.979 166.766 104.114C167.099 103.226 166.833 102.427 166.322 102.027C165.812 101.628 165.057 101.606 164.502 101.739Z" fill="#00B0AF"></path><path fill-rule="evenodd" clip-rule="evenodd" d="M187.517 97.234C186.94 92.9061 186.275 88.4673 185.476 83.9619C184.699 79.5897 183.833 75.1731 182.857 70.7121L176.931 77.9917C176.62 78.369 176.199 78.6354 175.755 78.7907C175.289 78.9239 174.8 78.9461 174.334 78.7907C171.826 78.0361 169.252 77.6144 166.699 77.4813C164.991 77.3925 163.282 77.4369 161.595 77.6144C161.795 94.2156 170.428 100.763 187.517 97.234Z" fill="#F59E29"></path><path fill-rule="evenodd" clip-rule="evenodd" d="M150.631 205.852C150.919 205.541 151.186 205.208 151.452 204.875C152.007 204.187 152.54 203.455 153.05 202.722C153.827 201.59 154.537 200.414 155.181 199.216C155.824 198.017 156.401 196.752 156.89 195.487C157.511 193.889 157.999 192.269 158.399 190.604C158.776 188.962 159.042 187.275 159.176 185.566C159.309 183.88 159.331 182.193 159.22 180.484C159.109 178.797 158.887 177.11 158.532 175.424C158.177 173.737 157.711 172.117 157.112 170.519C156.512 168.921 155.824 167.367 155.003 165.88C154.182 164.371 153.272 162.951 152.251 161.597C151.23 160.243 150.12 158.956 148.9 157.757C147.701 156.559 146.414 155.449 145.038 154.428C143.684 153.429 142.242 152.497 140.732 151.698C139.245 150.899 137.692 150.211 136.094 149.634C134.518 149.057 132.876 148.591 131.189 148.258C130.834 148.191 130.479 148.191 130.168 148.258C129.835 148.325 129.502 148.458 129.214 148.658C128.925 148.857 128.681 149.101 128.481 149.39C128.304 149.678 128.148 149.989 128.082 150.344C128.015 150.699 128.015 151.055 128.082 151.387C128.148 151.72 128.282 152.053 128.481 152.342C128.681 152.63 128.925 152.874 129.214 153.074C129.502 153.252 129.813 153.407 130.168 153.474C131.588 153.762 132.987 154.162 134.318 154.65C134.496 154.717 134.651 154.783 134.829 154.85C127.815 162.307 129.28 169.231 133.386 175.091C136.294 179.241 142.086 180.506 143.529 184.323C146.858 193.046 140.777 197.573 146.88 202.101C146.325 202.744 145.748 203.366 145.149 203.965C144.483 204.631 143.773 205.275 143.041 205.874H150.631V205.852Z" fill="#F59E29"></path></svg>